<?xml version="1.0" encoding="UTF-8"?>
<svg xmlns="http://www.w3.org/2000/svg" xmlns:xlink="http://www.w3.org/1999/xlink" viewBox="0 0 1920 1080">
  <defs>
    <linearGradient id="linear-gradient" x1="23.0" y1="6.31" x2="1930.83" y2="1107.69" gradientUnits="userSpaceOnUse">
      <stop offset="0" stop-color="#0071bc"/>
      <stop offset=".12" stop-color="#006db6"/>
      <stop offset=".27" stop-color="#0063a5"/>
      <stop offset=".44" stop-color="#00538a"/>
      <stop offset=".62" stop-color="#003c64"/>
      <stop offset=".81" stop-color="#001f35"/>
      <stop offset="1" stop-color="#000"/>
    </linearGradient>
    <filter id="drop-shadow-1" filterUnits="userSpaceOnUse">
      <feOffset dx="7" dy="7"/>
      <feGaussianBlur result="blur" stdDeviation="8"/>
      <feFlood flood-color="#000" flood-opacity=".75"/>
      <feComposite in2="blur" operator="in"/>
      <feComposite in="SourceGraphic"/>
    </filter>
    <filter id="drop-shadow-2" filterUnits="userSpaceOnUse">
      <feOffset dx="7" dy="7"/>
      <feGaussianBlur result="blur-2" stdDeviation="8"/>
      <feFlood flood-color="#000" flood-opacity=".75"/>
      <feComposite in2="blur-2" operator="in"/>
      <feComposite in="SourceGraphic"/>
    </filter>
    <filter id="drop-shadow-3" filterUnits="userSpaceOnUse">
      <feOffset dx="-7" dy="-7"/>
      <feGaussianBlur result="blur-3" stdDeviation="8"/>
      <feFlood flood-color="#000" flood-opacity=".75"/>
      <feComposite in2="blur-3" operator="in"/>
      <feComposite in="SourceGraphic"/>
    </filter>
    <filter id="drop-shadow-4" filterUnits="userSpaceOnUse">
      <feOffset dx="-7" dy="-7"/>
      <feGaussianBlur result="blur-4" stdDeviation="8"/>
      <feFlood flood-color="#000" flood-opacity=".75"/>
      <feComposite in2="blur-4" operator="in"/>
      <feComposite in="SourceGraphic"/>
    </filter>
  </defs>
  <g id="Layer_2" data-name="Layer 2">
    <rect x="0" y="0" width="1920" height="1080" style="fill: url(#linear-gradient);"/>
  </g>
  <g id="Layer_1" data-name="Layer 1">
    <path d="m0,484.18c21.8,37.99,54.49,81.46,94.83,82.15,55.85.96,71.7-81.01,135.68-92.82,75.93-14.02,128.55,87.63,155.9,60.39,29.5-29.39-25.12-154.33,10.11-193.48,27.42-30.46,82.62,20.6,99.44-5.59,13-20.24-6.05-72.44-34.78-130.13-8.19-23.68-14.6-48.35-8.2-55.52,0.41-19.49,105.56,116.89,145.79,88.35,24.18-0.15,5.86-75.98,35.39-137.56,23.45-48.9,63.63-71.49,95.44-82.98H0v467.18Z" style="fill: #0056ff; filter: url(#drop-shadow-1);"/>
    <path d="m0,336.97c19.81,26.02,49.53,55.79,86.19,56.26,50.76.66,65.0-55.49,123.32-63.57,69.02-9.6,116.85,60.02,141.7,41.36,26.82-20.13-22.84-105.7,9.19-132.51,24.92-20.86,75.1,14.11,90.38-3.83,11.82-13.86-5.5-49.61-31.61-89.12-7.45-16.22-13.27-33.11-7.45-38.03,15.82-13.35,95.94,80.06,132.51,60.51,21.97-11.75,5.33-52.04,32.0-94.21,21.32-33.49,57.83-48.96,86.75-56.83H0v319.97Z" style="fill: #3f84ff; filter: url(#drop-shadow-2);"/>
    <path d="m1937,629.82c-21.8-37.99-54.49-81.46-94.83-82.15-55.85-.96-71.7,81.01-135.68,92.82-75.93,14.02-128.55-87.63-155.9-60.39-29.5,29.39,25.12,154.33-10.11,193.48-27.42,30.46-82.62-20.6-99.44,5.59-13,20.24,6.05,72.44,34.78,130.13,8.19,23.68,14.6,48.35,8.2,55.52-0.41,19.49-105.56-116.89-145.79-88.35-24.18,0.15-5.86,75.98-35.39,137.56-23.45,48.9-63.63,71.49-95.44,82.98h729.6s0-467.18,0-467.18Z" style="fill: #0056ff; filter: url(#drop-shadow-3);"/>
    <path d="m1937,777.03c-19.81-26.02-49.53-55.79-86.19-56.26-50.76-.66-65.0,55.49-123.32,63.57-69.02,9.6-116.85-60.02-141.7-41.36-26.82,20.13,22.84,105.7-9.19,132.51-24.92,20.86-75.1-14.11-90.38,3.83-11.82,13.86,5.5,49.61,31.61,89.12,7.45,16.22,13.27,33.11,7.45,38.03-15.82,13.35-95.94-80.06-132.51-60.51-21.97,11.75-5.33,52.04-32.0,94.21-21.32,33.49-57.83,48.96-86.75,56.83h663.15s0-319.97,0-319.97Z" style="fill: #3f84ff; filter: url(#drop-shadow-4);"/>
  </g>
</svg>