<?xml version="1.0" encoding="UTF-8"?>
<svg id="Layer_2" data-name="Layer 2" xmlns="http://www.w3.org/2000/svg" xmlns:xlink="http://www.w3.org/1999/xlink" viewBox="0 0 1980 769">
  <defs>
    <filter id="drop-shadow-1" filterUnits="userSpaceOnUse">
      <feOffset dx="10" dy="10"/>
      <feGaussianBlur result="blur" stdDeviation="10"/>
      <feFlood flood-color="#000" flood-opacity=".75"/>
      <feComposite in2="blur" operator="in"/>
      <feComposite in="SourceGraphic"/>
    </filter>
  </defs>
  <path d="m20,296.03c36.88,61.73,95.98,138.1,175.27,143.94,100.04,7.37,128.14-105.2,228.79-96.97,101.33,8.28,155.58,129.15,301.52,133.33,5.25.15,9.8.13,10.62.12,130.33-.8,186.78-76.65,210.59-59.21,27.03,19.79-45.81,117.43-12.12,157.58,31.14,37.1,142.96,12.84,221.21-40.91,79.41-54.54,74.08-105,139.39-127.27,70.28-23.96,142.83,11.83,183.33,31.82,131.26,64.76,161.35,170.45,209.09,157.58,50.71-13.67,28.2-136.02,104.55-183.33,47.1-29.19,108.16-15.15,147.76-1.52V20H20v276.03Z" style="fill: #555; filter: url(#drop-shadow-1);"/>
</svg>